<?xml version="1.0" encoding="utf-8"?>
<!-- Generator: Adobe Illustrator 18.0.0, SVG Export Plug-In . SVG Version: 6.00 Build 0)  -->
<!DOCTYPE svg PUBLIC "-//W3C//DTD SVG 1.1//EN" "http://www.w3.org/Graphics/SVG/1.1/DTD/svg11.dtd">
<svg version="1.1" id="Layer_1" xmlns="http://www.w3.org/2000/svg" xmlns:xlink="http://www.w3.org/1999/xlink" x="0px" y="0px"
	 viewBox="0 0 189 12.5" enable-background="new 0 0 189 12.5" xml:space="preserve">
<g display="none">
	<path display="inline" fill="none" stroke="#FFFFFF" stroke-width="8" stroke-miterlimit="10" d="M136.2,26.6l-7,2.4l-5.5-5.4
		l-7.7-1l-2.6-7.3l-6.5-4.2l0.8-7.7l-4-6.6l4-6.6l-0.7-7c-3.8-1.1-8.1-3.3-10.5-5.7c-3-2.9-8.7-4.2-12.6-2.9c-4,1.3-10.4,1.3-14.4,0
		c-4-1.3-9.6,0-12.6,2.9c-3,2.9-8.8,5.7-13,6.2c-4.1,0.5-8.7,4.1-10.1,8.1c-1.4,3.9-5.5,9-9,11.2c-3.5,2.3-6,7.5-5.6,11.7
		c0.4,4.2-1,10.5-3.2,14s-2.2,9.4,0,12.9s3.6,9.9,3.2,14c-0.4,4.2,2.1,9.4,5.6,11.7c3.5,2.3,7.5,7.3,9,11.2c1.4,3.9,6,7.6,10.1,8.1
		c4.1,0.5,10,3.3,13,6.2c3,2.9,8.7,4.2,12.6,2.9c4-1.3,10.4-1.3,14.4,0c4,1.3,9.6,0,12.6-2.9c3-2.9,8.8-5.7,13-6.2
		c4.1-0.5,8.7-4.1,10.1-8.1c1.4-3.9,5.5-9,9-11.2c3.5-2.3,6-7.5,5.6-11.7c-0.4-4.2,1-10.5,3.2-14c2.2-3.6,2.2-9.4,0-12.9
		C136.9,28.1,136.5,27.4,136.2,26.6z"/>
	<path display="inline" fill="none" stroke="#FFFFFF" stroke-width="8" stroke-linecap="round" stroke-miterlimit="10" d="
		M49.8,44.6c13.8,13.8,36.2,13.8,50,0"/>
</g>
<g display="none">
	<g display="inline">
		<g>
			<path d="M74.4,95.6c-1.7,0-3.1-1.4-3.1-3.1V82.4c0-1.7,1.4-3.1,3.1-3.1s3.1,1.4,3.1,3.1v10.2C77.4,94.2,76.1,95.6,74.4,95.6z"/>
		</g>
	</g>
	<g display="inline">
		<g>
			<g>
				<path d="M80.4,71.6L80.4,71.6c-1,0-1.9-0.1-2.7-0.4c-0.8-0.3-2.1-0.4-3.3-0.4c-1.3,0-2.5,0.2-3.3,0.4c-0.8,0.3-1.7,0.4-2.7,0.4
					c-2.6,0-5.1-1-6.8-2.6c-1.3-1.3-4.2-2.7-6-2.9c-3.2-0.4-6.5-3-7.6-6c-0.6-1.8-2.6-4.2-4.2-5.2c-2.7-1.8-4.5-5.5-4.2-8.7
					c0.2-1.9-0.5-4.9-1.5-6.5c-1.7-2.8-1.7-6.9,0-9.7c1-1.6,1.7-4.7,1.5-6.5c-0.3-3.2,1.5-7,4.2-8.7c1.6-1,3.5-3.5,4.2-5.2
					c1.1-3,4.4-5.6,7.6-6c1.9-0.2,4.7-1.6,6-2.9c1.6-1.6,4.2-2.6,6.8-2.6c1,0,1.9,0.1,2.7,0.4c0.8,0.3,2.1,0.4,3.3,0.4
					c1.3,0,2.5-0.2,3.3-0.4c0.8-0.3,1.7-0.4,2.7-0.4c2.6,0,5.1,1,6.8,2.6c1.1,1,3.2,2.2,5,2.7l1.5,0.4l0.6,6.2l-2,3.2l2,3.2
					l-0.4,3.7l3.2,2l1.3,3.5l3.7,0.5l2.7,2.6l4.6-1.6l0.8,1.9c0.2,0.4,0.3,0.7,0.5,0.9c1.7,2.8,1.7,6.9,0,9.7
					c-1,1.6-1.7,4.7-1.5,6.5c0.3,3.2-1.5,7-4.2,8.7c-1.6,1-3.5,3.5-4.2,5.2c-1.1,3-4.4,5.6-7.6,6c-1.9,0.2-4.7,1.6-6,2.9
					C85.5,70.6,82.9,71.6,80.4,71.6z M74.4,66.2c1.8,0,3.5,0.2,4.8,0.7c0.3,0.1,0.8,0.2,1.2,0.2c1.4,0,2.8-0.5,3.6-1.3
					c2-2,5.8-3.8,8.6-4.2c1.5-0.2,3.4-1.7,3.9-3.1c1-2.7,3.6-6,6-7.5c1.3-0.8,2.3-3,2.2-4.5c-0.3-2.8,0.7-6.9,2.1-9.3
					c0.7-1.2,0.8-3.3,0.2-4.6l-3.4,1.1l-3.6-3.5l-5-0.6l-1.7-4.7l-4.2-2.7l0.5-5L87,12.9l2.6-4.3l-0.2-1.7c-2.1-0.8-4.1-2-5.4-3.3
					c-0.8-0.8-2.3-1.3-3.6-1.3c-0.5,0-0.9,0.1-1.2,0.2c-1.3,0.4-3,0.7-4.8,0.7c-1.8,0-3.5-0.2-4.8-0.7c-0.3-0.1-0.8-0.2-1.2-0.2
					c-1.4,0-2.8,0.5-3.6,1.3c-2,2-5.8,3.8-8.6,4.2c-1.5,0.2-3.4,1.7-3.9,3.1c-1,2.7-3.6,6-6,7.5c-1.3,0.8-2.3,3-2.2,4.5
					c0.3,2.8-0.7,6.9-2.1,9.3c-0.8,1.3-0.8,3.7,0,5c1.5,2.4,2.4,6.5,2.1,9.3c-0.2,1.5,0.9,3.6,2.2,4.5c2.4,1.5,5,4.8,6,7.5
					c0.5,1.4,2.4,2.9,3.9,3.1c2.8,0.4,6.6,2.2,8.6,4.2c0.8,0.8,2.3,1.3,3.6,1.3c0.5,0,0.9-0.1,1.2-0.2
					C70.9,66.4,72.6,66.2,74.4,66.2z"/>
			</g>
		</g>
		<g>
			<g>
				<path d="M74.4-10.5c-1.7,0-3.1-1.4-3.1-3.1v-10.2c0-1.7,1.4-3.1,3.1-3.1s3.1,1.4,3.1,3.1v10.2C77.4-11.9,76.1-10.5,74.4-10.5z"
					/>
			</g>
		</g>
		<g>
			<g>
				<path d="M133.5,37.5h-10.2c-1.7,0-3.1-1.4-3.1-3.1c0-1.7,1.4-3.1,3.1-3.1h10.2c1.7,0,3.1,1.4,3.1,3.1
					C136.6,36.1,135.2,37.5,133.5,37.5z"/>
			</g>
		</g>
		<g>
			<g>
				<path d="M26.4,37.5H16.2c-1.7,0-3.1-1.4-3.1-3.1c0-1.7,1.4-3.1,3.1-3.1h10.2c1.7,0,3.1,1.4,3.1,3.1
					C29.5,36.1,28.1,37.5,26.4,37.5z"/>
			</g>
		</g>
		<path d="M74.4,101C38.1,101,8.6,71.5,8.6,35.2s29.5-65.8,65.8-65.8S140.1-1,140.1,35.2S110.6,101,74.4,101z M74.4-22.5
			c-31.9,0-57.8,25.9-57.8,57.8C16.6,67.1,42.5,93,74.4,93c31.9,0,57.8-25.9,57.8-57.8C132.1,3.4,106.2-22.5,74.4-22.5z"/>
		<path fill="none" stroke="#000000" stroke-width="4" stroke-linecap="round" stroke-miterlimit="10" d="M59.5,44.4
			c8.4,8.4,22,8.4,30.4,0"/>
	</g>
</g>
<g display="none">
	<path display="inline" fill="none" stroke="#000000" stroke-width="8" stroke-miterlimit="10" d="M136.2,25.1l-6.9,2.3l-5.5-5.3
		l-7.6-0.9l-2.6-7.2l-6.4-4.1l0.8-7.6l-4-6.5l4-6.5l-0.7-6.8c-3.7-1-7.9-3.3-10.3-5.6c-2.9-2.9-8.5-4.1-12.4-2.8
		c-3.9,1.3-10.3,1.3-14.1,0c-3.9-1.3-9.5,0-12.4,2.8c-2.9,2.9-8.7,5.6-12.7,6.1c-4.1,0.5-8.6,4.1-10,7.9C34-5.2,30-0.2,26.6,2
		c-3.5,2.2-5.9,7.4-5.5,11.5c0.4,4.1-1,10.3-3.1,13.8s-2.1,9.2,0,12.7s3.6,9.7,3.1,13.8c-0.4,4.1,2.1,9.2,5.5,11.5
		c3.5,2.2-13.7,27.3-12.3,31.2c1.4,3.9,27-12.7,31.1-12.2c4.1,0.5,9.8,3.3,12.7,6.1c2.9,2.9,8.5,4.1,12.4,2.8
		c3.9-1.3,10.3-1.3,14.1,0c3.9,1.3,9.5,0,12.4-2.8c2.9-2.9,8.7-5.6,12.7-6.1c4.1-0.5,8.6-4.1,10-7.9c1.4-3.9,5.4-8.8,8.8-11.1
		c3.5-2.2,5.9-7.4,5.5-11.5c-0.4-4.1,1-10.3,3.1-13.8c2.1-3.5,2.1-9.2,0-12.7C136.9,26.6,136.6,25.9,136.2,25.1z"/>
	<path display="inline" fill="none" stroke="#000000" stroke-width="8" stroke-linecap="round" stroke-miterlimit="10" d="
		M49.4,44.7c13.8,13.8,36.2,13.8,50,0"/>
</g>
<line fill="none" stroke="#000000" stroke-width="7" stroke-linecap="round" stroke-linejoin="round" stroke-miterlimit="10" stroke-dasharray="0,15,0,15" x1="4.9" y1="6.9" x2="186.2" y2="6.9"/>
</svg>
