<?xml version="1.0" encoding="utf-8"?>
<!-- Generator: Adobe Illustrator 18.0.0, SVG Export Plug-In . SVG Version: 6.00 Build 0)  -->
<!DOCTYPE svg PUBLIC "-//W3C//DTD SVG 1.1//EN" "http://www.w3.org/Graphics/SVG/1.1/DTD/svg11.dtd">
<svg version="1.1" id="Layer_1" xmlns="http://www.w3.org/2000/svg" xmlns:xlink="http://www.w3.org/1999/xlink" x="0px" y="0px"
	 viewBox="24.6 0 102.8 101.3" enable-background="new 24.6 0 102.8 101.3" xml:space="preserve">
<g>
	<path fill="none" stroke="#000000" stroke-width="8" stroke-miterlimit="10" d="M120.5,44.5l-5.2,1.8l-4.1-4l-5.7-0.7l-1.9-5.4
		l-4.9-3.1l0.6-5.7l-3-4.9l3-4.9l-0.5-5.2c-2.8-0.8-6-2.5-7.8-4.3c-2.2-2.2-6.5-3.1-9.4-2.2c-3,1-7.8,1-10.7,0c-3-1-7.2,0-9.4,2.2
		s-6.6,4.3-9.7,4.6c-3.1,0.4-6.5,3.1-7.5,6s-4.1,6.7-6.7,8.4c-2.6,1.7-4.5,5.6-4.2,8.7c0.3,3.1-0.7,7.8-2.4,10.4
		c-1.6,2.6-1.6,7,0,9.6s2.7,7.4,2.4,10.4c-0.3,3.1,1.6,7,4.2,8.7c2.6,1.7,5.6,5.4,6.7,8.4c1,2.9,4.5,5.7,7.5,6
		c3.1,0.4,7.5,2.5,9.7,4.6c2.2,2.2,6.5,3.1,9.4,2.2c3-1,7.8-1,10.7,0c3,1,7.2,0,9.4-2.2c2.2-2.2,6.6-4.3,9.7-4.6
		c3.1-0.4,6.5-3.1,7.5-6s4.1-6.7,6.7-8.4c2.6-1.7,4.5-5.6,4.2-8.7s0.7-7.8,2.4-10.4c1.6-2.7,1.6-7,0-9.6
		C121,45.6,120.7,45.1,120.5,44.5z"/>
	<path fill="none" stroke="#000000" stroke-width="8" stroke-linecap="round" stroke-miterlimit="10" d="M56,57.9
		c10.3,10.3,27,10.3,37.3,0"/>
</g>
<g display="none">
	<g display="inline">
		<g>
			<path d="M74.4,96c-1.3,0-2.3-1-2.3-2.3V86c0-1.3,1-2.3,2.3-2.3s2.3,1,2.3,2.3v7.6C76.6,94.9,75.6,96,74.4,96z"/>
		</g>
	</g>
	<g display="inline">
		<g>
			<g>
				<path d="M78.8,78.1L78.8,78.1c-0.7,0-1.4-0.1-2-0.3c-0.6-0.2-1.6-0.3-2.5-0.3c-1,0-1.9,0.1-2.5,0.3c-0.6,0.2-1.3,0.3-2,0.3
					c-1.9,0-3.8-0.7-5.1-1.9c-1-1-3.1-2-4.5-2.2c-2.4-0.3-4.9-2.2-5.7-4.5c-0.4-1.3-1.9-3.1-3.1-3.9c-2-1.3-3.4-4.1-3.1-6.5
					c0.1-1.4-0.4-3.7-1.1-4.9c-1.3-2.1-1.3-5.1,0-7.2c0.7-1.2,1.3-3.5,1.1-4.9c-0.2-2.4,1.1-5.2,3.1-6.5c1.2-0.7,2.6-2.6,3.1-3.9
					c0.8-2.2,3.3-4.2,5.7-4.5c1.4-0.1,3.5-1.2,4.5-2.2c1.2-1.2,3.1-1.9,5.1-1.9c0.7,0,1.4,0.1,2,0.3c0.6,0.2,1.6,0.3,2.5,0.3
					c1,0,1.9-0.1,2.5-0.3c0.6-0.2,1.3-0.3,2-0.3c1.9,0,3.8,0.7,5.1,1.9c0.8,0.7,2.4,1.6,3.7,2l1.1,0.3l0.4,4.6l-1.5,2.4l1.5,2.4
					l-0.3,2.8l2.4,1.5l1,2.6L95,44l2,1.9l3.4-1.2l0.6,1.4c0.1,0.3,0.2,0.5,0.4,0.7c1.3,2.1,1.3,5.1,0,7.2c-0.7,1.2-1.3,3.5-1.1,4.9
					c0.2,2.4-1.1,5.2-3.1,6.5c-1.2,0.7-2.6,2.6-3.1,3.9c-0.8,2.2-3.3,4.2-5.7,4.5C87,74,84.9,75.1,83.9,76
					C82.6,77.3,80.7,78.1,78.8,78.1z M74.4,74c1.3,0,2.6,0.1,3.6,0.5c0.2,0.1,0.6,0.1,0.9,0.1c1,0,2.1-0.4,2.7-1
					c1.5-1.5,4.3-2.8,6.4-3.1c1.1-0.1,2.5-1.3,2.9-2.3c0.7-2,2.7-4.5,4.5-5.6c1-0.6,1.7-2.2,1.6-3.4c-0.2-2.1,0.5-5.1,1.6-6.9
					c0.5-0.9,0.6-2.5,0.1-3.4l-2.5,0.8l-2.7-2.6l-3.7-0.4l-1.3-3.5l-3.1-2l0.4-3.7l-1.9-3.2l1.9-3.2l-0.1-1.3
					c-1.6-0.6-3.1-1.5-4-2.5c-0.6-0.6-1.7-1-2.7-1c-0.4,0-0.7,0.1-0.9,0.1c-1,0.3-2.2,0.5-3.6,0.5s-2.6-0.1-3.6-0.5
					c-0.2-0.1-0.6-0.1-0.9-0.1c-1,0-2.1,0.4-2.7,1c-1.5,1.5-4.3,2.8-6.4,3.1c-1.1,0.1-2.5,1.3-2.9,2.3c-0.7,2-2.7,4.5-4.5,5.6
					c-1,0.6-1.7,2.2-1.6,3.4c0.2,2.1-0.5,5.1-1.6,6.9c-0.6,1-0.6,2.8,0,3.7c1.1,1.8,1.8,4.9,1.6,6.9c-0.1,1.1,0.7,2.7,1.6,3.4
					c1.8,1.1,3.7,3.6,4.5,5.6c0.4,1,1.8,2.2,2.9,2.3c2.1,0.3,4.9,1.6,6.4,3.1c0.6,0.6,1.7,1,2.7,1c0.4,0,0.7-0.1,0.9-0.1
					C71.8,74.2,73,74,74.4,74z"/>
			</g>
		</g>
		<g>
			<g>
				<path d="M74.4,16.8c-1.3,0-2.3-1-2.3-2.3V6.9c0-1.3,1-2.3,2.3-2.3s2.3,1,2.3,2.3v7.6C76.6,15.7,75.6,16.8,74.4,16.8z"/>
			</g>
		</g>
		<g>
			<g>
				<path d="M118.5,52.6h-7.6c-1.3,0-2.3-1-2.3-2.3s1-2.3,2.3-2.3h7.6c1.3,0,2.3,1,2.3,2.3S119.7,52.6,118.5,52.6z"/>
			</g>
		</g>
		<g>
			<g>
				<path d="M38.5,52.6h-7.6c-1.3,0-2.3-1-2.3-2.3s1-2.3,2.3-2.3h7.6c1.3,0,2.3,1,2.3,2.3S39.8,52.6,38.5,52.6z"/>
			</g>
		</g>
		<path d="M74.4,100c-27.1,0-49.1-22-49.1-49.1s22-49,49.1-49s49.1,22,49.1,49.1S101.4,100,74.4,100z M74.4,7.8
			C50.6,7.8,31.2,27.2,31.2,51s19.3,43.1,43.1,43.1s43.1-19.3,43.1-43.1S98.1,7.8,74.4,7.8z"/>
		<path fill="none" stroke="#FFFFFF" stroke-width="4" stroke-linecap="round" stroke-miterlimit="10" d="M63.2,57.8
			c6.3,6.3,16.4,6.3,22.7,0"/>
	</g>
</g>
<g display="none">
	<path display="inline" fill="none" stroke="#FFFFFF" stroke-width="8" stroke-miterlimit="10" d="M120.5,43.4l-5.1,1.7l-4.1-4
		l-5.7-0.7l-1.9-5.4l-4.9-3l0.6-5.7l-3-4.9l3-4.9l-0.5-5.1c-2.8-0.7-5.9-2.5-7.7-4.2C89.1,5,84.9,4.1,82,5c-2.9,1-7.7,1-10.5,0
		c-3-1-7.2,0-9.3,2.1c-2.2,2.2-6.5,4.2-9.5,4.6c-3.1,0.4-6.4,3.1-7.5,5.9c-1,3-4,6.7-6.6,8.4c-2.6,1.6-4.4,5.5-4.1,8.6
		s-0.7,7.7-2.3,10.3c-1.6,2.6-1.6,6.9,0,9.5c1.6,2.6,2.7,7.2,2.3,10.3c-0.3,3.1,1.6,6.9,4.1,8.6c2.6,1.6-10.2,20.4-9.2,23.3
		c1,2.9,20.1-9.5,23.2-9.1c3.1,0.4,7.3,2.5,9.5,4.6c2.2,2.2,6.3,3.1,9.3,2.1c2.9-1,7.7-1,10.5,0c2.9,1,7.1,0,9.3-2.1
		c2.2-2.2,6.5-4.2,9.5-4.6c3.1-0.4,6.4-3.1,7.5-5.9c1-2.9,4-6.6,6.6-8.3c2.6-1.6,4.4-5.5,4.1-8.6s0.7-7.7,2.3-10.3
		c1.6-2.6,1.6-6.9,0-9.5C121,44.5,120.8,44,120.5,43.4z"/>
	<path display="inline" fill="none" stroke="#FFFFFF" stroke-width="8" stroke-linecap="round" stroke-miterlimit="10" d="M55.7,58
		C66,68.3,82.7,68.3,93,58"/>
</g>
</svg>
