<?xml version="1.0" encoding="utf-8"?>
<!-- Generator: Adobe Illustrator 18.0.0, SVG Export Plug-In . SVG Version: 6.00 Build 0)  -->
<!DOCTYPE svg PUBLIC "-//W3C//DTD SVG 1.1//EN" "http://www.w3.org/Graphics/SVG/1.1/DTD/svg11.dtd">
<svg version="1.1" id="Layer_1" xmlns="http://www.w3.org/2000/svg" xmlns:xlink="http://www.w3.org/1999/xlink" x="0px" y="0px"
	 viewBox="0 0 138.5 134" enable-background="new 0 0 138.5 134" xml:space="preserve">
<g display="none">
	<path display="inline" fill="none" stroke="#FFFFFF" stroke-width="8" stroke-miterlimit="10" d="M130.2,59.6l-7,2.4l-5.5-5.4
		l-7.7-1l-2.6-7.3l-6.5-4.2l0.8-7.7l-4-6.6l4-6.6l-0.7-7c-3.8-1.1-8.1-3.3-10.5-5.7c-3-2.9-8.7-4.2-12.6-2.9c-4,1.3-10.4,1.3-14.4,0
		c-4-1.3-9.6,0-12.6,2.9c-3,2.9-8.8,5.7-13,6.2c-4.1,0.5-8.7,4.1-10.1,8.1c-1.4,3.9-5.5,9-9,11.2c-3.5,2.3-6,7.5-5.6,11.7
		c0.4,4.2-1,10.5-3.2,14s-2.2,9.4,0,12.9s3.6,9.9,3.2,14c-0.4,4.2,2.1,9.4,5.6,11.7c3.5,2.3,7.5,7.3,9,11.2c1.4,3.9,6,7.6,10.1,8.1
		c4.1,0.5,10,3.3,13,6.2c3,2.9,8.7,4.2,12.6,2.9c4-1.3,10.4-1.3,14.4,0c4,1.3,9.6,0,12.6-2.9c3-2.9,8.8-5.7,13-6.2
		c4.1-0.5,8.7-4.1,10.1-8.1c1.4-3.9,5.5-9,9-11.2c3.5-2.3,6-7.5,5.6-11.7c-0.4-4.2,1-10.5,3.2-14c2.2-3.6,2.2-9.4,0-12.9
		C130.9,61.1,130.5,60.4,130.2,59.6z"/>
	<path display="inline" fill="none" stroke="#FFFFFF" stroke-width="8" stroke-linecap="round" stroke-miterlimit="10" d="
		M43.8,77.6c13.8,13.8,36.2,13.8,50,0"/>
</g>
<g>
	<g>
		<g>
			<path d="M68.4,128.6c-1.7,0-3.1-1.4-3.1-3.1v-10.2c0-1.7,1.4-3.1,3.1-3.1s3.1,1.4,3.1,3.1v10.2C71.4,127.2,70.1,128.6,68.4,128.6
				z"/>
		</g>
	</g>
	<g>
		<g>
			<g>
				<path d="M74.4,104.6L74.4,104.6c-1,0-1.9-0.1-2.7-0.4c-0.8-0.3-2.1-0.4-3.3-0.4c-1.3,0-2.5,0.2-3.3,0.4
					c-0.8,0.3-1.7,0.4-2.7,0.4c-2.6,0-5.1-1-6.8-2.6c-1.3-1.3-4.2-2.7-6-2.9c-3.2-0.4-6.5-3-7.6-6c-0.6-1.8-2.6-4.2-4.2-5.2
					c-2.7-1.8-4.5-5.5-4.2-8.7c0.2-1.9-0.5-4.9-1.5-6.5c-1.7-2.8-1.7-6.9,0-9.7c1-1.6,1.7-4.7,1.5-6.5c-0.3-3.2,1.5-7,4.2-8.7
					c1.6-1,3.5-3.5,4.2-5.2c1.1-3,4.4-5.6,7.6-6c1.9-0.2,4.7-1.6,6-2.9c1.6-1.6,4.2-2.6,6.8-2.6c1,0,1.9,0.1,2.7,0.4
					c0.8,0.3,2.1,0.4,3.3,0.4c1.3,0,2.5-0.2,3.3-0.4c0.8-0.3,1.7-0.4,2.7-0.4c2.6,0,5.1,1,6.8,2.6c1.1,1,3.2,2.2,5,2.7l1.5,0.4
					l0.6,6.2l-2,3.2l2,3.2l-0.4,3.7l3.2,2l1.3,3.5l3.7,0.5l2.7,2.6l4.6-1.6l0.8,1.9c0.2,0.4,0.3,0.7,0.5,0.9c1.7,2.8,1.7,6.9,0,9.7
					c-1,1.6-1.7,4.7-1.5,6.5c0.3,3.2-1.5,7-4.2,8.7c-1.6,1-3.5,3.5-4.2,5.2c-1.1,3-4.4,5.6-7.6,6c-1.9,0.2-4.7,1.6-6,2.9
					C79.5,103.6,76.9,104.6,74.4,104.6z M68.4,99.2c1.8,0,3.5,0.2,4.8,0.7c0.3,0.1,0.8,0.2,1.2,0.2c1.4,0,2.8-0.5,3.6-1.3
					c2-2,5.8-3.8,8.6-4.2c1.5-0.2,3.4-1.7,3.9-3.1c1-2.7,3.6-6,6-7.5c1.3-0.8,2.3-3,2.2-4.5c-0.3-2.8,0.7-6.9,2.1-9.3
					c0.7-1.2,0.8-3.3,0.2-4.6l-3.4,1.1L94,63.2l-5-0.6l-1.7-4.7l-4.2-2.7l0.5-5L81,45.9l2.6-4.3l-0.2-1.7c-2.1-0.8-4.1-2-5.4-3.3
					c-0.8-0.8-2.3-1.3-3.6-1.3c-0.5,0-0.9,0.1-1.2,0.2c-1.3,0.4-3,0.7-4.8,0.7c-1.8,0-3.5-0.2-4.8-0.7c-0.3-0.1-0.8-0.2-1.2-0.2
					c-1.4,0-2.8,0.5-3.6,1.3c-2,2-5.8,3.8-8.6,4.2c-1.5,0.2-3.4,1.7-3.9,3.1c-1,2.7-3.6,6-6,7.5c-1.3,0.8-2.3,3-2.2,4.5
					c0.3,2.8-0.7,6.9-2.1,9.3c-0.8,1.3-0.8,3.7,0,5c1.5,2.4,2.4,6.5,2.1,9.3c-0.2,1.5,0.9,3.6,2.2,4.5c2.4,1.5,5,4.8,6,7.5
					c0.5,1.4,2.4,2.9,3.9,3.1c2.8,0.4,6.6,2.2,8.6,4.2c0.8,0.8,2.3,1.3,3.6,1.3c0.5,0,0.9-0.1,1.2-0.2
					C64.9,99.4,66.6,99.2,68.4,99.2z"/>
			</g>
		</g>
		<g>
			<g>
				<path d="M68.4,22.5c-1.7,0-3.1-1.4-3.1-3.1V9.3c0-1.7,1.4-3.1,3.1-3.1s3.1,1.4,3.1,3.1v10.2C71.4,21.1,70.1,22.5,68.4,22.5z"/>
			</g>
		</g>
		<g>
			<g>
				<path d="M127.5,70.5h-10.2c-1.7,0-3.1-1.4-3.1-3.1c0-1.7,1.4-3.1,3.1-3.1h10.2c1.7,0,3.1,1.4,3.1,3.1
					C130.6,69.1,129.2,70.5,127.5,70.5z"/>
			</g>
		</g>
		<g>
			<g>
				<path d="M20.4,70.5H10.2c-1.7,0-3.1-1.4-3.1-3.1c0-1.7,1.4-3.1,3.1-3.1h10.2c1.7,0,3.1,1.4,3.1,3.1
					C23.5,69.1,22.1,70.5,20.4,70.5z"/>
			</g>
		</g>
		<path d="M68.4,134c-36.3,0-65.8-29.5-65.8-65.8S32.1,2.5,68.4,2.5s65.8,29.5,65.8,65.8S104.6,134,68.4,134z M68.4,10.5
			c-31.9,0-57.8,25.9-57.8,57.8c0,31.9,25.9,57.8,57.8,57.8c31.9,0,57.8-25.9,57.8-57.8C126.1,36.4,100.2,10.5,68.4,10.5z"/>
		<path fill="none" stroke="#000000" stroke-width="4" stroke-linecap="round" stroke-miterlimit="10" d="M53.5,77.4
			c8.4,8.4,22,8.4,30.4,0"/>
	</g>
</g>
<g display="none">
	<path display="inline" fill="none" stroke="#000000" stroke-width="8" stroke-miterlimit="10" d="M130.2,58.1l-6.9,2.3l-5.5-5.3
		l-7.6-0.9l-2.6-7.2l-6.4-4.1l0.8-7.6l-4-6.5l4-6.5l-0.7-6.8c-3.7-1-7.9-3.3-10.3-5.6C88.2,7,82.6,5.7,78.7,7
		c-3.9,1.3-10.3,1.3-14.1,0C60.6,5.7,55,7,52.1,9.8c-2.9,2.9-8.7,5.6-12.7,6.1c-4.1,0.5-8.6,4.1-10,7.9C28,27.8,24,32.8,20.6,35
		c-3.5,2.2-5.9,7.4-5.5,11.5c0.4,4.1-1,10.3-3.1,13.8s-2.1,9.2,0,12.7c2.1,3.5,3.6,9.7,3.1,13.8c-0.4,4.1,2.1,9.2,5.5,11.5
		c3.5,2.2-13.7,27.3-12.3,31.2c1.4,3.9,27-12.7,31.1-12.2c4.1,0.5,9.8,3.3,12.7,6.1c2.9,2.9,8.5,4.1,12.4,2.8
		c3.9-1.3,10.3-1.3,14.1,0c3.9,1.3,9.5,0,12.4-2.8c2.9-2.9,8.7-5.6,12.7-6.1c4.1-0.5,8.6-4.1,10-7.9c1.4-3.9,5.4-8.8,8.8-11.1
		c3.5-2.2,5.9-7.4,5.5-11.5c-0.4-4.1,1-10.3,3.1-13.8c2.1-3.5,2.1-9.2,0-12.7C130.9,59.6,130.6,58.9,130.2,58.1z"/>
	<path display="inline" fill="none" stroke="#000000" stroke-width="8" stroke-linecap="round" stroke-miterlimit="10" d="
		M43.4,77.7c13.8,13.8,36.2,13.8,50,0"/>
</g>
</svg>
