<?xml version="1.0" encoding="utf-8"?>
<!-- Generator: Adobe Illustrator 18.0.0, SVG Export Plug-In . SVG Version: 6.00 Build 0)  -->
<!DOCTYPE svg PUBLIC "-//W3C//DTD SVG 1.1//EN" "http://www.w3.org/Graphics/SVG/1.1/DTD/svg11.dtd">
<svg version="1.1" id="Layer_1" xmlns="http://www.w3.org/2000/svg" xmlns:xlink="http://www.w3.org/1999/xlink" x="0px" y="0px"
	 viewBox="24.9 0 99.9 100" enable-background="new 24.9 0 99.9 100" xml:space="preserve">
<g>
	<g>
		<g>
			<g>
				<path d="M75,94.5c-1.2,0-2.3-1-2.3-2.3v-7.5c0-1.2,1-2.3,2.3-2.3s2.3,1,2.3,2.3v7.5C77.3,93.5,76.3,94.5,75,94.5z"/>
			</g>
		</g>
	</g>
	<g>
		<g>
			<g>
				<g>
					<path d="M79.5,76.8L79.5,76.8c-0.7,0-1.4-0.1-2-0.3c-0.6-0.2-1.5-0.3-2.5-0.3c-0.9,0-1.8,0.1-2.5,0.3c-0.6,0.2-1.3,0.3-2,0.3
						c-1.9,0-3.8-0.7-5-1.9c-1-1-3.1-2-4.5-2.1c-2.4-0.3-4.8-2.2-5.6-4.5c-0.5-1.3-1.9-3.1-3.1-3.9c-2-1.3-3.3-4.1-3.1-6.4
						c0.1-1.4-0.4-3.6-1.1-4.8c-1.2-2-1.2-5.1,0-7.2c0.7-1.2,1.2-3.4,1.1-4.8c-0.2-2.4,1.1-5.2,3.1-6.4c1.2-0.8,2.6-2.6,3.1-3.9
						c0.8-2.2,3.2-4.2,5.6-4.5c1.4-0.2,3.5-1.2,4.5-2.1c1.2-1.2,3.1-1.9,5-1.9c0.7,0,1.4,0.1,2,0.3C73.1,22.9,74,23,75,23
						c0.9,0,1.8-0.1,2.5-0.3c0.6-0.2,1.3-0.3,2-0.3c1.9,0,3.8,0.7,5,1.9c0.8,0.8,2.3,1.6,3.7,2l1.1,0.3l0.5,4.6l-1.5,2.4l1.5,2.4
						l-0.3,2.7l2.3,1.5l0.9,2.6l2.7,0.3l2,1.9l3.4-1.1l0.6,1.4c0.1,0.3,0.2,0.5,0.3,0.7c1.2,2,1.2,5.1,0,7.2
						c-0.7,1.2-1.2,3.4-1.1,4.8c0.2,2.4-1.1,5.2-3.1,6.4c-1.2,0.8-2.6,2.6-3.1,3.9c-0.8,2.2-3.2,4.2-5.6,4.5
						c-1.4,0.2-3.5,1.2-4.5,2.1C83.3,76.1,81.4,76.8,79.5,76.8z M75,72.8c1.3,0,2.6,0.2,3.5,0.5c0.2,0.1,0.6,0.1,0.9,0.1
						c1,0,2.1-0.4,2.7-0.9c1.5-1.5,4.3-2.8,6.4-3.1c1.1-0.1,2.5-1.2,2.9-2.3c0.7-2,2.7-4.4,4.4-5.5c0.9-0.6,1.7-2.2,1.6-3.3
						c-0.2-2.1,0.5-5.1,1.6-6.9c0.5-0.9,0.6-2.4,0.1-3.4l-2.5,0.9l-2.7-2.6l-3.7-0.5L89,42.4l-3.1-2l0.4-3.7l-1.9-3.2l1.9-3.2
						L86.2,29c-1.5-0.6-3-1.5-4-2.4c-0.6-0.6-1.7-0.9-2.7-0.9c-0.3,0-0.7,0-0.9,0.1c-1,0.3-2.2,0.5-3.5,0.5s-2.6-0.2-3.5-0.5
						c-0.3-0.1-0.6-0.1-0.9-0.1c-1,0-2.1,0.4-2.7,0.9c-1.5,1.5-4.3,2.8-6.4,3.1c-1.1,0.1-2.5,1.2-2.9,2.3c-0.7,2-2.7,4.4-4.4,5.5
						c-0.9,0.6-1.7,2.2-1.6,3.3c0.2,2.1-0.5,5.1-1.6,6.9c-0.6,0.9-0.6,2.7,0,3.7c1.1,1.8,1.8,4.8,1.6,6.9c-0.1,1.1,0.7,2.7,1.6,3.3
						c1.8,1.1,3.7,3.6,4.4,5.5c0.4,1,1.8,2.1,2.9,2.3c2.1,0.3,4.9,1.6,6.4,3.1c0.6,0.6,1.7,0.9,2.7,0.9c0.3,0,0.7,0,0.9-0.1
						C72.5,73,73.7,72.8,75,72.8z"/>
				</g>
			</g>
		</g>
		<g>
			<g>
				<g>
					<path d="M75,16.3c-1.2,0-2.3-1-2.3-2.3V6.5c0-1.2,1-2.3,2.3-2.3s2.3,1,2.3,2.3V14C77.3,15.2,76.3,16.3,75,16.3z"/>
				</g>
			</g>
		</g>
		<g>
			<g>
				<g>
					<path d="M118.7,51.6h-7.5c-1.2,0-2.3-1-2.3-2.3c0-1.2,1-2.3,2.3-2.3h7.5c1.2,0,2.3,1,2.3,2.3S119.9,51.6,118.7,51.6z"/>
				</g>
			</g>
		</g>
		<g>
			<g>
				<g>
					<path d="M39.7,51.6h-7.5c-1.2,0-2.3-1-2.3-2.3c0-1.2,1-2.3,2.3-2.3h7.5c1.2,0,2.3,1,2.3,2.3C41.9,50.6,40.9,51.6,39.7,51.6z"/>
				</g>
			</g>
		</g>
		<g>
			<path d="M75,98.5c-26.8,0-48.5-21.8-48.5-48.5S48.3,1.5,75,1.5s48.5,21.8,48.5,48.5S101.8,98.5,75,98.5z M75,7.4
				C51.5,7.4,32.4,26.5,32.4,50S51.5,92.6,75,92.6s42.6-19.1,42.6-42.6S98.6,7.4,75,7.4z"/>
		</g>
		<g>
			<path d="M75.3,62.9c-4.4,0-8.9-1.7-12.2-5.1c-0.6-0.6-0.6-1.5,0-2.1s1.5-0.6,2.1,0c5.6,5.6,14.7,5.6,20.3,0
				c0.6-0.6,1.5-0.6,2.1,0s0.6,1.5,0,2.1C84.1,61.2,79.7,62.9,75.3,62.9z"/>
		</g>
	</g>
</g>
</svg>
