<?xml version="1.0" encoding="utf-8"?>
<!-- Generator: Adobe Illustrator 18.0.0, SVG Export Plug-In . SVG Version: 6.00 Build 0)  -->
<!DOCTYPE svg PUBLIC "-//W3C//DTD SVG 1.1//EN" "http://www.w3.org/Graphics/SVG/1.1/DTD/svg11.dtd">
<svg version="1.1" id="Layer_1" xmlns="http://www.w3.org/2000/svg" xmlns:xlink="http://www.w3.org/1999/xlink" x="0px" y="0px"
	 viewBox="0 0 414 411" enable-background="new 0 0 414 411" xml:space="preserve">
<g display="none">
	<path display="inline" fill="none" stroke="#FFFFFF" stroke-width="8" stroke-miterlimit="10" d="M247.6,210.5l-7,2.4l-5.5-5.4
		l-7.7-1l-2.6-7.3l-6.5-4.2l0.8-7.7l-4-6.6l4-6.6l-0.7-7c-3.8-1.1-8.1-3.3-10.5-5.7c-3-2.9-8.7-4.2-12.6-2.9c-4,1.3-10.4,1.3-14.4,0
		c-4-1.3-9.6,0-12.6,2.9c-3,2.9-8.8,5.7-13,6.2c-4.1,0.5-8.7,4.1-10.1,8.1c-1.4,3.9-5.5,9-9,11.2c-3.5,2.3-6,7.5-5.6,11.7
		c0.4,4.2-1,10.5-3.2,14c-2.2,3.6-2.2,9.4,0,12.9c2.2,3.6,3.6,9.9,3.2,14c-0.4,4.2,2.1,9.4,5.6,11.7c3.5,2.3,7.5,7.3,9,11.2
		c1.4,3.9,6,7.6,10.1,8.1c4.1,0.5,10,3.3,13,6.2c3,2.9,8.7,4.2,12.6,2.9c4-1.3,10.4-1.3,14.4,0c4,1.3,9.6,0,12.6-2.9
		c3-2.9,8.8-5.7,13-6.2c4.1-0.5,8.7-4.1,10.1-8.1c1.4-3.9,5.5-9,9-11.2c3.5-2.3,6-7.5,5.6-11.7c-0.4-4.2,1-10.5,3.2-14
		c2.2-3.6,2.2-9.4,0-12.9C248.3,212,247.9,211.3,247.6,210.5z"/>
	<path display="inline" fill="none" stroke="#FFFFFF" stroke-width="8" stroke-linecap="round" stroke-miterlimit="10" d="
		M161.2,228.5c13.8,13.8,36.2,13.8,50,0"/>
</g>
<g display="none">
	<g display="inline">
		<g>
			<path d="M185.8,279.5c-1.7,0-3.1-1.4-3.1-3.1v-10.2c0-1.7,1.4-3.1,3.1-3.1s3.1,1.4,3.1,3.1v10.2
				C188.8,278.1,187.5,279.5,185.8,279.5z"/>
		</g>
	</g>
	<g display="inline">
		<g>
			<g>
				<path d="M191.8,255.5L191.8,255.5c-1,0-1.9-0.1-2.7-0.4c-0.8-0.3-2.1-0.4-3.3-0.4c-1.3,0-2.5,0.2-3.3,0.4
					c-0.8,0.3-1.7,0.4-2.7,0.4c-2.6,0-5.1-1-6.8-2.6c-1.3-1.3-4.2-2.7-6-2.9c-3.2-0.4-6.5-3-7.6-6c-0.6-1.8-2.6-4.2-4.2-5.2
					c-2.7-1.8-4.5-5.5-4.2-8.7c0.2-1.9-0.5-4.9-1.5-6.5c-1.7-2.8-1.7-6.9,0-9.7c1-1.6,1.7-4.7,1.5-6.5c-0.3-3.2,1.5-7,4.2-8.7
					c1.6-1,3.5-3.5,4.2-5.2c1.1-3,4.4-5.6,7.6-6c1.9-0.2,4.7-1.6,6-2.9c1.6-1.6,4.2-2.6,6.8-2.6c1,0,1.9,0.1,2.7,0.4
					c0.8,0.3,2.1,0.4,3.3,0.4c1.3,0,2.5-0.2,3.3-0.4c0.8-0.3,1.7-0.4,2.7-0.4c2.6,0,5.1,1,6.8,2.6c1.1,1,3.2,2.2,5,2.7l1.5,0.4
					l0.6,6.2l-2,3.2l2,3.2l-0.4,3.7l3.2,2l1.3,3.5l3.7,0.5l2.7,2.6l4.6-1.6l0.8,1.9c0.2,0.4,0.3,0.7,0.5,0.9c1.7,2.8,1.7,6.9,0,9.7
					c-1,1.6-1.7,4.7-1.5,6.5c0.3,3.2-1.5,7-4.2,8.7c-1.6,1-3.5,3.5-4.2,5.2c-1.1,3-4.4,5.6-7.6,6c-1.9,0.2-4.7,1.6-6,2.9
					C196.9,254.5,194.3,255.5,191.8,255.5z M185.8,250.1c1.8,0,3.5,0.2,4.8,0.7c0.3,0.1,0.8,0.2,1.2,0.2c1.4,0,2.8-0.5,3.6-1.3
					c2-2,5.8-3.8,8.6-4.2c1.5-0.2,3.4-1.7,3.9-3.1c1-2.7,3.6-6,6-7.5c1.3-0.8,2.3-3,2.2-4.5c-0.3-2.8,0.7-6.9,2.1-9.3
					c0.7-1.2,0.8-3.3,0.2-4.6l-3.4,1.1l-3.6-3.5l-5-0.6l-1.7-4.7l-4.2-2.7l0.5-5l-2.6-4.3l2.6-4.3l-0.2-1.7c-2.1-0.8-4.1-2-5.4-3.3
					c-0.8-0.8-2.3-1.3-3.6-1.3c-0.5,0-0.9,0.1-1.2,0.2c-1.3,0.4-3,0.7-4.8,0.7c-1.8,0-3.5-0.2-4.8-0.7c-0.3-0.1-0.8-0.2-1.2-0.2
					c-1.4,0-2.8,0.5-3.6,1.3c-2,2-5.8,3.8-8.6,4.2c-1.5,0.2-3.4,1.7-3.9,3.1c-1,2.7-3.6,6-6,7.5c-1.3,0.8-2.3,3-2.2,4.5
					c0.3,2.8-0.7,6.9-2.1,9.3c-0.8,1.3-0.8,3.7,0,5c1.5,2.4,2.4,6.5,2.1,9.3c-0.2,1.5,0.9,3.6,2.2,4.5c2.4,1.5,5,4.8,6,7.5
					c0.5,1.4,2.4,2.9,3.9,3.1c2.8,0.4,6.6,2.2,8.6,4.2c0.8,0.8,2.3,1.3,3.6,1.3c0.5,0,0.9-0.1,1.2-0.2
					C182.3,250.3,184,250.1,185.8,250.1z"/>
			</g>
		</g>
		<g>
			<g>
				<path d="M185.8,173.4c-1.7,0-3.1-1.4-3.1-3.1v-10.2c0-1.7,1.4-3.1,3.1-3.1s3.1,1.4,3.1,3.1v10.2
					C188.8,172,187.5,173.4,185.8,173.4z"/>
			</g>
		</g>
		<g>
			<g>
				<path d="M244.9,221.4h-10.2c-1.7,0-3.1-1.4-3.1-3.1s1.4-3.1,3.1-3.1h10.2c1.7,0,3.1,1.4,3.1,3.1S246.6,221.4,244.9,221.4z"/>
			</g>
		</g>
		<g>
			<g>
				<path d="M137.8,221.4h-10.2c-1.7,0-3.1-1.4-3.1-3.1s1.4-3.1,3.1-3.1h10.2c1.7,0,3.1,1.4,3.1,3.1S139.5,221.4,137.8,221.4z"/>
			</g>
		</g>
		<path d="M185.8,284.9c-36.3,0-65.8-29.5-65.8-65.8s29.5-65.8,65.8-65.8s65.8,29.5,65.8,65.8S222,284.9,185.8,284.9z M185.8,161.4
			c-31.9,0-57.8,25.9-57.8,57.8c0,31.9,25.9,57.8,57.8,57.8c31.9,0,57.8-25.9,57.8-57.8C243.5,187.3,217.6,161.4,185.8,161.4z"/>
		<path fill="none" stroke="#000000" stroke-width="4" stroke-linecap="round" stroke-miterlimit="10" d="M170.9,228.3
			c8.4,8.4,22,8.4,30.4,0"/>
	</g>
</g>
<g display="none">
	<path display="inline" fill="none" stroke="#000000" stroke-width="8" stroke-miterlimit="10" d="M247.6,209l-6.9,2.3l-5.5-5.3
		l-7.6-0.9l-2.6-7.2l-6.4-4.1l0.8-7.6l-4-6.5l4-6.5l-0.7-6.8c-3.7-1-7.9-3.3-10.3-5.6c-2.9-2.9-8.5-4.1-12.4-2.8
		c-3.9,1.3-10.3,1.3-14.1,0c-3.9-1.3-9.5,0-12.4,2.8c-2.9,2.9-8.7,5.6-12.7,6.1c-4.1,0.5-8.6,4.1-10,7.9c-1.4,3.9-5.4,8.8-8.8,11.1
		c-3.5,2.2-5.9,7.4-5.5,11.5c0.4,4.1-1,10.3-3.1,13.8c-2.1,3.5-2.1,9.2,0,12.7c2.1,3.5,3.6,9.7,3.1,13.8c-0.4,4.1,2.1,9.2,5.5,11.5
		c3.5,2.2-13.7,27.3-12.3,31.2c1.4,3.9,27-12.7,31.1-12.2c4.1,0.5,9.8,3.3,12.7,6.1c2.9,2.9,8.5,4.1,12.4,2.8
		c3.9-1.3,10.3-1.3,14.1,0c3.9,1.3,9.5,0,12.4-2.8c2.9-2.9,8.7-5.6,12.7-6.1c4.1-0.5,8.6-4.1,10-7.9c1.4-3.9,5.4-8.8,8.8-11.1
		c3.5-2.2,5.9-7.4,5.5-11.5c-0.4-4.1,1-10.3,3.1-13.8c2.1-3.5,2.1-9.2,0-12.7C248.3,210.5,248,209.8,247.6,209z"/>
	<path display="inline" fill="none" stroke="#000000" stroke-width="8" stroke-linecap="round" stroke-miterlimit="10" d="
		M160.8,228.6c13.8,13.8,36.2,13.8,50,0"/>
</g>
<line display="none" fill="none" stroke="#000000" stroke-width="7" stroke-linecap="round" stroke-linejoin="round" stroke-miterlimit="10" stroke-dasharray="0,15,0,15" x1="116.3" y1="190.8" x2="297.6" y2="190.8"/>
<g display="none">
	
		<circle display="inline" fill="none" stroke="#000000" stroke-width="7" stroke-linecap="round" stroke-linejoin="round" stroke-dasharray="0,15.0308,0,15.0308" cx="207.3" cy="191.3" r="291.8"/>
</g>
<g>
	<g>
		<g>
			<g>
				<path fill="#FFFFFF" d="M207.2,388.5c-5.1,0-9.3-4.2-9.3-9.3v-30.8c0-5.1,4.2-9.3,9.3-9.3c5.1,0,9.3,4.2,9.3,9.3v30.8
					C216.6,384.3,212.4,388.5,207.2,388.5z"/>
			</g>
		</g>
	</g>
	<g>
		<g>
			<g>
				<g>
					<path fill="#FFFFFF" d="M225.5,315.6L225.5,315.6c-2.9,0-5.6-0.4-8.1-1.3c-2.6-0.9-6.3-1.4-10.2-1.4c-3.9,0-7.6,0.5-10.2,1.4
						c-2.5,0.8-5.2,1.3-8.1,1.3c-7.7,0-15.6-3-20.5-7.8c-4.1-4-12.6-8.1-18.3-8.8c-9.7-1.2-19.6-9.1-23-18.3
						c-1.9-5.4-7.9-12.8-12.7-15.9c-8.3-5.3-13.7-16.7-12.8-26.5c0.6-5.7-1.5-14.9-4.5-19.8c-5.1-8.4-5.1-21,0-29.4
						c3-4.9,5.1-14.1,4.5-19.8c-1-9.8,4.5-21.2,12.8-26.5c4.8-3.1,10.7-10.5,12.7-15.9c3.4-9.2,13.2-17.1,23-18.3
						c5.7-0.7,14.2-4.8,18.3-8.8C173.4,95,181.2,92,189,92c2.9,0,5.6,0.4,8.1,1.3c2.6,0.9,6.3,1.4,10.2,1.4c3.9,0,7.6-0.5,10.2-1.4
						c2.5-0.8,5.2-1.3,8.1-1.3c7.7,0,15.6,3,20.5,7.8c3.2,3.1,9.6,6.6,15.1,8.1l4.5,1.3l1.9,18.9l-6,9.7l6,9.7l-1.1,11.3l9.6,6.2
						l3.9,10.7l11.3,1.4l8.2,8l14-4.7l2.5,5.8c0.5,1.2,1,2.2,1.4,2.8c5.1,8.4,5.1,21,0,29.4c-3,4.9-5.1,14.1-4.5,19.8
						c1,9.8-4.5,21.2-12.8,26.5c-4.8,3.1-10.7,10.5-12.7,15.9c-3.4,9.2-13.2,17.1-23,18.3c-5.7,0.7-14.2,4.8-18.3,8.8
						C241.1,312.6,233.3,315.6,225.5,315.6z M207.2,299.3c5.4,0,10.6,0.7,14.5,2.1c1,0.4,2.3,0.5,3.7,0.5c4.1,0,8.6-1.6,10.9-3.9
						c6.2-6,17.7-11.6,26.2-12.6c4.6-0.6,10.2-5,11.8-9.4c2.9-8.1,10.9-18.1,18.1-22.7c3.9-2.5,7-9,6.5-13.6c-0.9-8.6,2-21,6.5-28.3
						c2.2-3.6,2.4-9.9,0.6-14l-10.4,3.5l-10.9-10.6l-15.1-1.9l-5.2-14.3l-12.8-8.2l1.5-15.1l-7.9-13l7.9-13l-0.5-5.2
						c-6.3-2.4-12.5-6.1-16.4-10c-2.3-2.3-6.8-3.9-10.9-3.9c-1.4,0-2.7,0.2-3.7,0.5c-4,1.3-9.1,2.1-14.5,2.1
						c-5.4,0-10.6-0.7-14.5-2.1c-1.1-0.4-2.3-0.5-3.7-0.5c-4.1,0-8.6,1.6-10.9,3.9c-6.2,6-17.7,11.6-26.2,12.6
						c-4.6,0.6-10.2,5-11.8,9.4c-2.9,8.1-10.9,18.1-18.1,22.7c-3.9,2.5-7,9-6.5,13.6c0.9,8.6-2,21-6.5,28.3
						c-2.4,3.9-2.4,11.1,0,15.1c4.5,7.3,7.3,19.8,6.5,28.3c-0.5,4.6,2.7,11.1,6.5,13.6c7.2,4.7,15.2,14.6,18.1,22.7
						c1.6,4.3,7.2,8.8,11.8,9.4c8.5,1.1,20,6.6,26.2,12.6c2.3,2.3,6.8,3.9,10.9,3.9c1.4,0,2.7-0.2,3.7-0.5
						C196.7,300,201.8,299.3,207.2,299.3z"/>
				</g>
			</g>
		</g>
		<g>
			<g>
				<g>
					<path fill="#FFFFFF" d="M207.2,66.8c-5.1,0-9.3-4.2-9.3-9.3V26.7c0-5.1,4.2-9.3,9.3-9.3c5.1,0,9.3,4.2,9.3,9.3v30.8
						C216.6,62.6,212.4,66.8,207.2,66.8z"/>
				</g>
			</g>
		</g>
		<g>
			<g>
				<g>
					<path fill="#FFFFFF" d="M386.6,212.2h-30.8c-5.1,0-9.3-4.2-9.3-9.3c0-5.1,4.2-9.3,9.3-9.3h30.8c5.1,0,9.3,4.2,9.3,9.3
						C395.9,208.1,391.7,212.2,386.6,212.2z"/>
				</g>
			</g>
		</g>
		<g>
			<g>
				<g>
					<path fill="#FFFFFF" d="M61.8,212.2H31c-5.1,0-9.3-4.2-9.3-9.3c0-5.1,4.2-9.3,9.3-9.3h30.8c5.1,0,9.3,4.2,9.3,9.3
						C71.1,208.1,67,212.2,61.8,212.2z"/>
				</g>
			</g>
		</g>
		<g>
			<path fill="#FFFFFF" d="M207.2,404.9c-110,0-199.4-89.5-199.4-199.4S97.3,6.1,207.2,6.1s199.4,89.5,199.4,199.4
				S317.2,404.9,207.2,404.9z M207.2,30.3c-96.6,0-175.2,78.6-175.2,175.2c0,96.6,78.6,175.2,175.2,175.2
				c96.6,0,175.2-78.6,175.2-175.2C382.4,108.9,303.8,30.3,207.2,30.3z"/>
		</g>
		<g>
			<path fill="#FFFFFF" d="M208.2,258.4c-18.2,0-36.5-6.9-50.3-20.8c-2.4-2.4-2.4-6.2,0-8.6c2.4-2.4,6.2-2.4,8.6,0
				c23,23,60.5,23,83.5,0c2.4-2.4,6.2-2.4,8.6,0c2.4,2.4,2.4,6.2,0,8.6C244.6,251.4,226.4,258.4,208.2,258.4z"/>
		</g>
	</g>
</g>
</svg>
