<?xml version="1.0" encoding="utf-8"?>
<!-- Generator: Adobe Illustrator 18.0.0, SVG Export Plug-In . SVG Version: 6.00 Build 0)  -->
<!DOCTYPE svg PUBLIC "-//W3C//DTD SVG 1.1//EN" "http://www.w3.org/Graphics/SVG/1.1/DTD/svg11.dtd">
<svg version="1.1" id="Layer_1" xmlns="http://www.w3.org/2000/svg" xmlns:xlink="http://www.w3.org/1999/xlink" x="0px" y="0px"
	 viewBox="24.9 0 99.9 100" enable-background="new 24.9 0 99.9 100" xml:space="preserve">
<g>
	<g>
		<g>
			<g>
				<path fill="#FFFFFF" d="M75,94.5c-1.2,0-2.3-1-2.3-2.3v-7.5c0-1.2,1-2.3,2.3-2.3s2.3,1,2.3,2.3v7.5C77.3,93.5,76.3,94.5,75,94.5
					z"/>
			</g>
		</g>
	</g>
	<g>
		<g>
			<g>
				<g>
					<path fill="#FFFFFF" d="M75,16.3c-1.2,0-2.3-1-2.3-2.3V6.5c0-1.2,1-2.3,2.3-2.3s2.3,1,2.3,2.3V14C77.3,15.2,76.3,16.3,75,16.3z
						"/>
				</g>
			</g>
		</g>
		<g>
			<g>
				<g>
					<path fill="#FFFFFF" d="M118.7,51.6h-7.5c-1.2,0-2.3-1-2.3-2.3c0-1.2,1-2.3,2.3-2.3h7.5c1.2,0,2.3,1,2.3,2.3
						S119.9,51.6,118.7,51.6z"/>
				</g>
			</g>
		</g>
		<g>
			<g>
				<g>
					<path fill="#FFFFFF" d="M39.7,51.6h-7.5c-1.2,0-2.3-1-2.3-2.3c0-1.2,1-2.3,2.3-2.3h7.5c1.2,0,2.3,1,2.3,2.3
						C41.9,50.6,40.9,51.6,39.7,51.6z"/>
				</g>
			</g>
		</g>
		<g>
			<path fill="#FFFFFF" d="M75,98.5c-26.8,0-48.5-21.8-48.5-48.5S48.3,1.5,75,1.5s48.5,21.8,48.5,48.5S101.8,98.5,75,98.5z M75,7.4
				C51.5,7.4,32.4,26.5,32.4,50S51.5,92.6,75,92.6s42.6-19.1,42.6-42.6S98.6,7.4,75,7.4z"/>
		</g>
	</g>
</g>
</svg>
